<?xml version="1.0" encoding="UTF-8"?>
<svg width="30px" height="30px" viewBox="0 0 30 30" version="1.1" xmlns="http://www.w3.org/2000/svg" xmlns:xlink="http://www.w3.org/1999/xlink">
    <!-- Generator: Sketch 49.3 (51167) - http://www.bohemiancoding.com/sketch -->
    <title>icon-line-y@3x</title>
    <desc>Created with Sketch.</desc>
    <defs></defs>
    <g id="Page-1" stroke="none" stroke-width="1" fill="none" fill-rule="evenodd">
        <g id="candidate-index" transform="translate(-253.000000, -3939.000000)">
            <g id="Group-19" transform="translate(0.000000, 3660.000000)">
                <rect id="Rectangle" fill="#2C2C2C" x="0" y="0" width="1440" height="433"></rect>
                <g id="Group-2" transform="translate(173.000000, 279.000000)">
                    <g id="icon-line-y" transform="translate(80.000000, 0.000000)">
                        <rect id="Rectangle" fill="#FFB10D" transform="translate(15.000000, 15.000000) scale(1, -1) translate(-15.000000, -15.000000) " x="2.84217094e-14" y="0" width="30" height="30"></rect>
                        <g id="line" transform="translate(4.000000, 11.000000)" fill="#2C2C2C">
                            <g id="Imported-Layers">
                                <path d="M20.9682169,4.90986468 C21.450625,4.90986468 21.8427022,4.53821571 21.8427022,4.08155219 C21.8427022,3.62415683 21.450625,3.25250786 20.9682169,3.25250786 L18.5294118,3.25250786 L18.5294118,1.76920523 L20.9682169,1.76920523 C21.450625,1.76920523 21.8427022,1.39755626 21.8427022,0.940282874 C21.8427022,0.483009493 21.450625,0.11123855 20.9682169,0.11123855 L17.6540257,0.11123855 C17.1725184,0.11123855 16.7803125,0.483009493 16.7803125,0.940282874 L16.7803125,7.22160178 C16.7803125,7.67887516 17.1730331,8.0506461 17.6540257,8.0506461 L20.9682169,8.0506461 C21.4497243,8.0506461 21.8427022,7.67887516 21.8427022,7.22160178 C21.8427022,6.76493826 21.4497243,6.39267943 20.9682169,6.39267943 L18.5294118,6.39267943 L18.5294118,4.90986468 L20.9682169,4.90986468" id="Fill-1"></path>
                                <path d="M14.7324265,0.11123855 C14.2504044,0.11123855 13.8579412,0.483009493 13.8579412,0.940282874 L13.8579412,4.82643577 L10.4616544,0.44324659 C10.2973346,0.235040225 10.0363787,0.11123855 9.7628125,0.11123855 C9.66926471,0.11123855 9.57520221,0.125021397 9.48525735,0.153928783 C9.12766544,0.267118886 8.88794118,0.582904638 8.88794118,0.940282874 L8.88794118,7.22160178 C8.88794118,7.67887516 9.27976103,8.0506461 9.76216912,8.0506461 C10.2445772,8.0506461 10.6367831,7.67887516 10.6367831,7.22160178 L10.6367831,3.33593678 L14.0321691,7.71924792 C14.1970037,7.92684443 14.4586029,8.0506461 14.730625,8.0506461 C14.8252022,8.0506461 14.91875,8.03686326 15.0089522,8.00795587 C15.3669301,7.89525366 15.6063971,7.5794679 15.6063971,7.22160178 L15.6063971,0.940282874 C15.6063971,0.483009493 15.2143199,0.11123855 14.7324265,0.11123855" id="Fill-2"></path>
                                <path d="M6.75654412,0.11123855 C6.27413603,0.11123855 5.88231618,0.483009493 5.88231618,0.940282874 L5.88231618,7.22160178 C5.88231618,7.67887516 6.27413603,8.0506461 6.75654412,8.0506461 C7.23830882,8.0506461 7.63077206,7.67887516 7.63077206,7.22160178 L7.63077206,0.940282874 C7.63077206,0.483009493 7.23830882,0.11123855 6.75654412,0.11123855" id="Fill-3"></path>
                                <path d="M4.20347426,6.39267943 L1.76415441,6.39267943 L1.76415441,0.940282874 C1.76415441,0.483009493 1.37259191,0.11123855 0.890183824,0.11123855 C0.407775735,0.11123855 0.0156985294,0.483009493 0.0156985294,0.940282874 L0.0156985294,7.22160178 C0.0156985294,7.67887516 0.407775735,8.0506461 0.890183824,8.0506461 L4.20347426,8.0506461 C4.68588235,8.0506461 5.07744485,7.67887516 5.07744485,7.22160178 C5.07744485,6.76493826 4.68588235,6.39267943 4.20347426,6.39267943" id="Fill-4"></path>
                            </g>
                        </g>
                    </g>
                </g>
            </g>
        </g>
    </g>
</svg>