<?xml version="1.0" encoding="UTF-8"?>
<svg width="281px" height="33px" viewBox="0 0 281 33" version="1.1" xmlns="http://www.w3.org/2000/svg" xmlns:xlink="http://www.w3.org/1999/xlink">
    <!-- Generator: Sketch 49.3 (51167) - http://www.bohemiancoding.com/sketch -->
    <title>taipei-logo</title>
    <desc>Created with Sketch.</desc>
    <defs>
        <polygon id="path-1" points="0 1.4244 24.8914 1.4244 24.8914 26.3164 0 26.3164"></polygon>
        <polygon id="path-3" points="0 34 217.358 34 217.358 1.706 0 1.706"></polygon>
        <polygon id="path-5" points="0 34.2932 217.358 34.2932 217.358 1.9992 0 1.9992"></polygon>
        <polygon id="path-7" points="0.0100868762 0.00891205212 84.9799938 0.00891205212 84.9799938 24 0.0100868762 24"></polygon>
    </defs>
    <g id="Page-1" stroke="none" stroke-width="1" fill="none" fill-rule="evenodd">
        <g id="candidate-index" transform="translate(-80.000000, -13.000000)">
            <g id="taipei-logo" transform="translate(0.000000, -1.000000)">
                <rect id="Rectangle" transform="translate(720.000000, 30.000000) scale(1, -1) translate(-720.000000, -30.000000) " x="0" y="0" width="1440" height="60"></rect>
                <g id="Group-22" transform="translate(80.000000, 12.000000)">
                    <g id="Page-1">
                        <polygon id="Fill-1" fill="#020203" points="0 5.7192 24.892 5.7192 24.892 30.6092 0 30.6092"></polygon>
                        <g id="Group-5" transform="translate(0.000000, 4.293200)">
                            <mask id="mask-2" fill="white">
                                <use xlink:href="#path-1"></use>
                            </mask>
                            <g id="Clip-4"></g>
                            <path d="M24.8914,8.3744 C23.8894,7.9064 22.6074,7.6304 20.9974,7.6844 C19.1794,7.7464 17.2374,7.7964 15.2874,7.8404 L17.0954,5.0964 C17.0954,5.0964 18.0594,3.6164 20.5814,1.4284 C20.5834,1.4284 20.5854,1.4264 20.5874,1.4244 L13.1514,1.4244 L9.6614,7.9464 C6.4434,7.9984 3.5494,8.0244 1.5934,8.0364 C1.0394,8.0384 0.5094,8.0344 -0.0006,8.0264 L-0.0006,12.3004 C1.2314,12.2404 2.3634,12.1704 3.7014,12.1264 C4.2254,12.1084 5.6694,12.0624 7.4914,12.0004 L-0.0006,26.0004 L-0.0006,26.3164 L0.1354,26.3164 L6.4834,16.5464 L1.1654,26.3164 L1.7814,26.3164 L7.8294,17.3444 L2.6174,26.3164 L3.1134,26.3164 L12.6594,11.8284 C16.4754,11.7004 20.0334,11.5824 20.0334,11.5824 C21.2534,11.5404 22.4354,13.2064 20.9754,14.7664 C19.5154,16.3304 15.5374,19.5744 13.6734,19.6464 C11.8934,19.7144 10.1954,18.6364 10.1954,18.6364 C11.1354,19.8064 12.5414,20.3824 13.5074,20.4884 C15.0914,20.6624 16.8734,19.5724 16.8734,19.5724 C16.8734,19.5724 17.0494,19.4984 16.9674,19.7064 C16.7674,20.2044 15.3294,21.2244 13.5874,21.2064 C11.7934,21.1884 9.4214,19.4984 9.4214,19.4984 C10.5614,20.9404 12.0234,21.8124 13.4974,22.0964 C15.7654,22.5364 17.6394,20.8644 17.6394,20.8644 C17.6394,20.8644 17.7534,21.0364 17.6174,21.1864 C16.6574,22.2604 14.7874,22.8824 13.5514,22.7704 C10.6034,22.5044 8.8594,20.5084 8.8594,20.5084 C9.7414,22.4104 12.5794,23.4764 13.7154,23.7624 C15.4674,24.2084 17.1214,23.6504 20.0134,21.6224 C21.7154,20.4304 23.4554,18.8364 24.8914,17.3784 L24.8914,8.3744 Z" id="Fill-3" fill="#FEFEFE" mask="url(#mask-2)"></path>
                        </g>
                        <path d="M88.0956,26.9196 L87.8356,26.9196 L87.8356,25.5176 L88.0416,25.5176 C88.4436,25.5176 88.7016,25.6416 88.7016,26.1696 C88.7016,26.7856 88.3896,26.9196 88.0956,26.9196 Z M90.4876,25.9016 C90.4876,24.8296 89.9696,24.2316 88.7296,24.2316 L86.0516,24.2316 L86.0516,30.6076 L87.8356,30.6076 L87.8356,28.0976 L88.1676,28.0976 C88.4796,28.0976 88.6856,28.1976 88.6856,28.7396 C88.6856,29.0516 88.7116,30.5856 88.7116,30.5856 L90.4796,30.5856 L90.4716,29.0516 C90.4716,28.6696 90.4716,28.2496 90.3016,27.9636 C90.1336,27.6516 89.7836,27.4816 89.4256,27.4556 L89.4256,27.4376 C90.0416,27.3396 90.4876,26.9196 90.4876,25.9016 Z M71.7716,26.9196 L71.5116,26.9196 L71.5116,25.5176 L71.7176,25.5176 C72.1196,25.5176 72.3796,25.6416 72.3796,26.1696 C72.3796,26.7856 72.0656,26.9196 71.7716,26.9196 Z M74.1656,25.9016 C74.1656,24.8296 73.6456,24.2316 72.4056,24.2316 L69.7256,24.2316 L69.7256,30.6076 L71.5116,30.6076 L71.5116,28.0976 L71.8436,28.0976 C72.1556,28.0976 72.3616,28.1976 72.3616,28.7396 C72.3616,29.0516 72.3876,30.5856 72.3876,30.5856 L74.1556,30.5856 L74.1476,29.0516 C74.1476,28.6696 74.1476,28.2496 73.9776,27.9636 C73.8076,27.6516 73.4596,27.4816 73.1016,27.4556 L73.1016,27.4376 C73.7196,27.3396 74.1656,26.9196 74.1656,25.9016 Z M62.8156,28.7496 L62.7976,28.7496 L62.1636,24.2316 L60.5916,24.2316 L60.0296,28.7496 L60.0116,28.7496 L59.5916,24.2316 L57.8596,24.2316 L58.9036,30.6076 L60.8496,30.6076 L61.3596,26.3216 L61.3776,26.3216 L61.9136,30.6076 L63.8236,30.6076 L64.8776,24.2316 L63.1996,24.2316 L62.8156,28.7496 Z M67.0496,28.0516 L68.9676,28.0516 L68.9676,26.6596 L67.0496,26.6596 L67.0496,25.6776 L69.1016,25.6776 L69.1016,24.2316 L65.2616,24.2316 L65.2616,30.6076 L69.1816,30.6076 L69.1816,29.1596 L67.0496,29.1596 L67.0496,28.0516 Z M78.4176,26.9196 L78.2216,26.9196 L78.2216,25.5176 L78.4176,25.5176 C78.8736,25.5176 79.0256,25.7776 79.0256,26.2136 C79.0256,26.8576 78.7476,26.9196 78.4176,26.9196 Z M78.8036,24.2316 L76.4356,24.2316 L76.4356,30.6076 L78.2216,30.6076 L78.2216,28.2056 L78.7656,28.2056 C79.9796,28.2056 80.8636,27.6336 80.8636,26.2136 C80.8636,24.8116 80.1676,24.2316 78.8036,24.2316 Z M55.4096,29.5516 C55.0256,29.5516 54.9556,29.2856 54.9556,27.4196 C54.9556,25.5516 55.0256,25.2856 55.4096,25.2856 C55.7936,25.2856 55.8656,25.5516 55.8656,27.4196 C55.8656,29.2856 55.7936,29.5516 55.4096,29.5516 Z M55.4096,24.1076 C53.1156,24.1076 53.1156,25.4476 53.1156,27.4196 C53.1156,29.4556 53.1156,30.7316 55.4096,30.7316 C57.7056,30.7316 57.7056,29.4556 57.7056,27.4196 C57.7056,25.4476 57.7056,24.1076 55.4096,24.1076 Z M36.8856,28.0516 L38.8036,28.0516 L38.8036,26.6596 L36.8856,26.6596 L36.8856,25.6776 L38.9396,25.6776 L38.9396,24.2316 L35.0996,24.2316 L35.0996,30.6076 L39.0196,30.6076 L39.0196,29.1596 L36.8856,29.1596 L36.8856,28.0516 Z M82.6696,28.2396 L83.0816,25.6256 L83.0976,25.6256 L83.4816,28.2396 L82.6696,28.2396 Z M81.9736,24.2316 L80.4656,30.6076 L82.3036,30.6076 L82.4816,29.6336 L83.6796,29.6336 L83.8756,30.6076 L85.7156,30.6076 L84.2156,24.2316 L81.9736,24.2316 Z M32.7336,28.1256 L32.7176,28.1256 L31.8056,24.2316 L29.8676,24.2316 L29.8676,30.6076 L31.4936,30.6076 L31.4936,26.6796 L31.5116,26.6796 L32.5016,30.6076 L34.4136,30.6076 L34.4136,24.2316 L32.7336,24.2316 L32.7336,28.1256 Z M44.3736,28.7496 L44.3556,28.7496 L43.7216,24.2316 L42.1516,24.2316 L41.5896,28.7496 L41.5716,28.7496 L41.1516,24.2316 L39.4196,24.2316 L40.4636,30.6076 L42.4096,30.6076 L42.9196,26.3216 L42.9376,26.3216 L43.4716,30.6076 L45.3836,30.6076 L46.4376,24.2316 L44.7596,24.2316 L44.3736,28.7496 Z M50.2576,26.9196 L50.0616,26.9196 L50.0616,25.5176 L50.2576,25.5176 C50.7136,25.5176 50.8656,25.7776 50.8656,26.2136 C50.8656,26.8576 50.5896,26.9196 50.2576,26.9196 Z M50.6416,24.2316 L48.2756,24.2316 L48.2756,30.6076 L50.0616,30.6076 L50.0616,28.2056 L50.6056,28.2056 C51.8216,28.2056 52.7056,27.6336 52.7056,26.2136 C52.7056,24.8116 52.0096,24.2316 50.6416,24.2316 Z M90.8796,25.7316 L92.0936,25.7316 L92.0936,30.6076 L93.8796,30.6076 L93.8796,25.7316 L95.0936,25.7316 L95.0936,24.2316 L90.8796,24.2316 L90.8796,25.7316 Z M98.3256,24.2316 L97.7716,26.4556 L97.7556,26.4556 L97.2456,24.2316 L95.2636,24.2316 L96.8716,28.0976 L96.8716,30.6076 L98.6556,30.6076 L98.6556,28.0976 L100.2636,24.2316 L98.3256,24.2316 Z" id="Fill-6" fill="#020203"></path>
                        <g id="Group-14" transform="translate(0.000000, 0.293200)">
                            <polygon id="Fill-8" fill="#020203" points="74.8426 9.2024 78.5526 9.2024 78.5526 19.5724 74.0986 19.5724 74.0986 21.3304 81.8946 21.3304 81.8946 7.4804 75.6346 7.4804 76.5786 5.4204 72.3866 5.4204 71.6386 7.4804 66.5726 7.4804 66.5726 9.2024 71.0126 9.2024 66.7626 20.9524 68.6206 17.2204 66.9906 21.5724 69.1526 17.4604 67.2306 22.0664 69.3026 17.9904 68.0386 21.5924 70.0926 17.2904 68.5546 21.5724 70.6866 17.5584 69.2926 21.3644"></polygon>
                            <mask id="mask-4" fill="white">
                                <use xlink:href="#path-3"></use>
                            </mask>
                            <g id="Clip-11"></g>
                            <path d="M84.484,12 L100.18,12 L100.18,10.506 L84.484,10.506 L84.484,12 Z M88.336,7.296 L96.326,7.296 L96.326,6.698 L88.336,6.698 L88.336,7.296 Z M88.336,8.808 L96.326,8.808 L96.326,8.21 L88.336,8.21 L88.336,8.808 Z M85.214,10.064 L99.45,10.064 L99.45,5.422 L85.214,5.422 L85.214,10.064 Z M88.372,14.202 L90.602,14.202 L90.602,13.604 L88.372,13.604 L88.372,14.202 Z M88.372,15.714 L90.602,15.714 L90.602,15.096 L88.372,15.096 L88.372,15.714 Z M94.062,15.716 L96.292,15.716 L96.292,15.098 L94.062,15.098 L94.062,15.716 Z M94.062,14.202 L96.292,14.202 L96.292,13.604 L94.062,13.604 L94.062,14.202 Z M94.062,19.572 L94.062,18.85 L99.38,18.85 L99.38,17.53 L94.062,17.53 L94.062,16.86 L99.38,16.86 L99.38,12.458 L85.284,12.458 L85.284,16.86 L90.602,16.86 L90.602,17.53 L85.284,17.53 L85.284,18.85 L90.602,18.85 L90.602,19.572 L84.436,19.572 L84.436,21.332 L100.228,21.332 L100.228,19.572 L94.062,19.572 Z" id="Fill-10" fill="#020203" mask="url(#mask-4)"></path>
                            <path d="M64.0262,10.515 L59.2442,10.515 C58.6902,7.905 58.2382,5.783 58.1602,5.421 L54.6782,5.421 C54.7542,5.783 55.1862,7.829 55.7542,10.515 L52.0422,10.515 C52.5842,8.795 53.5262,5.805 53.6502,5.421 L50.2062,5.421 C50.0502,5.917 48.5362,10.779 48.1142,12.135 L49.0042,12.135 L48.9922,21.331 L52.2642,21.331 L52.2642,12.129 L56.0982,12.129 C56.7362,15.139 57.5062,18.723 58.0702,21.331 L63.8082,21.331 L63.8082,19.571 L61.1742,19.571 C60.7902,17.763 60.1662,14.843 59.5902,12.129 L64.0262,12.129 L64.0262,10.515 Z M63.6682,9.205 L62.8162,5.421 L59.7222,5.421 L60.5742,9.205 L63.6682,9.205 Z" id="Fill-12" fill="#020203" mask="url(#mask-4)"></path>
                            <path d="M32.276,19.208 L33.144,19.208 L33.144,14.46 L32.276,14.46 L32.276,19.208 Z M32.276,12.654 L33.144,12.654 L33.144,7.71 L32.276,7.71 L32.276,12.654 Z M29.87,20.79 L35.514,20.79 L35.514,6.078 L29.87,6.078 L29.87,20.79 Z M44.476,12.654 L44.476,11.332 L45.508,11.332 L45.508,9.77 L42.352,9.77 L42.352,8.43 L45.508,8.43 L45.508,6.926 L42.31,6.926 L42.31,5.422 L39.016,5.422 L39.016,6.926 L36.046,6.926 L36.046,8.43 L39.016,8.43 L39.016,9.77 L36.046,9.77 L36.046,11.332 L41.134,11.332 L41.134,12.654 L36.076,12.654 L36.076,14.46 L41.134,14.46 L41.134,19.572 L37.266,19.572 L37.266,21.33 L44.476,21.33 L44.476,14.46 L45.56,14.46 L45.56,12.654 L44.476,12.654 Z M39.374,15.166 L36.28,15.166 L37.112,18.86 L40.204,18.86 L39.374,15.166 Z" id="Fill-13" fill="#020203" mask="url(#mask-4)"></path>
                        </g>
                        <path d="M116.742,1.9996 L116.742,34.2916" id="Stroke-15" stroke="#020203" stroke-width="0.5"></path>
                        <mask id="mask-6" fill="white">
                            <use xlink:href="#path-5"></use>
                        </mask>
                        <g id="Clip-18"></g>
                    </g>
                    <g id="Page-1" transform="translate(131.000000, 6.000000)">
                        <path d="M56.8743935,17.7749457 C56.470701,17.5727066 56.026486,17.4801107 55.5937857,17.47524 C54.0253089,17.4572236 52.713198,18.5238042 52.3255431,19.9919825 C52.1304159,20.7319899 52.1542772,21.6091103 52.5588794,22.3361291 C52.7495878,22.6781524 53.0265659,22.9756585 53.3543337,23.1907814 C53.6874819,23.4095182 54.0687947,23.5333023 54.4478461,23.591646 C55.2244816,23.7103499 56.0201438,23.5533874 56.6584982,23.1708534 C57.2485322,22.8180151 57.707979,22.2741454 57.9742221,21.6342233 C58.2398154,20.9954272 58.337184,20.2325589 58.1901954,19.5154386 C58.038606,18.7725508 57.5711015,18.1229134 56.8743935,17.7749457 Z M59.837534,2.23122993 C59.5866525,1.50431588 59.0080293,0.947798088 58.2859784,0.699653791 C57.9765095,0.593467096 57.6536283,0.542769823 57.3361536,0.538972765 C56.5719686,0.530462117 55.8423798,0.781591687 55.2644064,1.22781149 C54.6855752,1.67481688 54.2769701,2.30601888 54.0858719,3.02840265 C53.9888932,3.3953294 53.9505799,3.77739201 53.9534911,4.1651633 C53.9569222,4.63204433 54.0439457,5.10772407 54.1027931,5.57507646 C54.2224375,6.51748011 54.341562,7.45946477 54.4607904,8.40252308 C54.6992473,10.285733 54.9375743,12.1692048 55.1761612,14.0526765 C55.2358924,14.522988 55.2955976,14.9937709 55.3551468,15.4645537 C55.4137344,15.9292089 55.4833688,16.3946235 55.5283101,16.8596452 C55.5307274,16.8832394 55.5474407,17.0833051 55.5847662,17.0064212 C55.6263805,16.9234358 55.6479285,16.8258907 55.6778201,16.7371443 C55.7501057,16.5209476 55.8223134,16.3038083 55.895093,16.0868522 C56.0383387,15.6577585 56.1823901,15.2285862 56.3257138,14.7992567 C56.9049869,13.0684791 57.4835061,11.3368634 58.0624413,9.60671425 C58.3522598,8.74033032 58.6420522,7.87502005 58.9314548,7.0092646 C59.2154769,6.16076613 59.5095062,5.31616947 59.7894735,4.46602124 C60.0201326,3.76652457 60.0964211,2.98092633 59.837534,2.23122993 Z M44.2714746,10.7567515 L44.934964,4.39898352 L46.2139602,4.39898352 L45.5503669,10.7567515 L44.2714746,10.7567515 Z M41.2877999,10.7567515 L40.1088236,10.7567515 L40.7723649,4.39898352 L41.9510034,4.39898352 L41.2877999,10.7567515 Z M48.5436589,15.4781969 L50.0605402,0.937820991 L37.6479138,0.937820991 L35.8426956,18.2401246 C35.4105932,22.3833959 36.4057232,23.4192858 39.791011,23.4192858 L44.2044655,23.4192858 C47.3639287,23.4192858 48.5046439,22.1027803 49.3918263,17.6816167 C48.4352694,17.4793775 47.0215011,16.8483588 46.2546908,16.2671994 C45.7141988,19.5257824 45.4461102,19.9329579 44.2170979,19.9329579 L40.5808508,19.9329579 C39.3024784,19.9329579 39.1700716,19.7560674 39.3282371,18.2401246 L39.7478631,14.2180973 L45.1891725,14.2180973 L45.0579094,15.4781969 L48.5436589,15.4781969 Z M31.564533,15.0205074 L30.0600502,15.0205074 L31.0547644,5.48517783 L32.5590913,5.48517783 L31.564533,15.0205074 Z M27.9976604,2.09964223 L26.0698087,20.5784578 L29.4801274,20.5784578 L29.7067836,18.4059644 L34.6971718,18.4059644 L36.3982633,2.09964223 L27.9976604,2.09964223 Z M18.2056688,6.54332629 C17.5053478,8.69068051 16.3058632,10.8126075 14.8094382,12.1771655 L14.7250139,12.0257283 L15.2968791,6.54332629 L18.2056688,6.54332629 Z M15.8953347,0.808642454 C16.4573746,0.7074574 16.6767789,0.530776357 16.7305318,0.252805513 L12.1177913,0 L11.8093621,2.95610143 L2.95750007,2.95610143 L2.58325734,6.54332629 L6.41985612,6.54332629 C5.43717655,9.47392196 3.64786587,12.2024356 1.43872129,13.6677858 C2.13563725,14.1980384 3.27357116,15.3097908 3.78424951,15.9415428 C4.92467871,15.1075517 5.96552992,14.0213574 6.89747177,12.7833593 C7.3936462,13.314188 7.84246195,13.8191182 8.12625012,14.2235965 L10.8051865,11.6213809 C10.3337052,11.0909712 9.55766747,10.3582699 8.77895252,9.65102199 C9.09310015,9.04461871 9.38731139,8.38751815 9.62857552,7.75626378 C9.95205453,7.78127199 10.2156724,7.65479068 10.3675736,7.40235178 L6.87121916,6.54332629 L11.4351194,6.54332629 L10.8446954,12.2024356 C8.3709193,15.4864719 4.27590121,18.4423376 0,20.0088729 C0.748225527,20.7669752 1.7714537,22.2572812 2.25055093,23.1920384 C5.19359906,21.9033954 7.92909558,19.9582018 10.2807321,17.608975 L9.61391565,24 L13.4757793,24 L14.1661711,17.3815181 C16.0474439,19.7812851 18.3941938,21.8024199 21.0658003,23.1161496 C21.7756346,22.0806002 23.1423821,20.5137769 24.1272711,19.7307187 C20.5080752,18.3666322 17.2581574,15.8656278 15.3440038,13.0613301 C15.8365652,13.3895793 16.6165019,13.8444668 17.1430617,14.3243102 C17.6974598,13.8191182 18.2343388,13.2380112 18.7265883,12.6064949 C19.7826712,13.5412521 20.8334776,14.5263661 21.4143362,15.2087367 L24.1853648,12.6821219 C23.366907,11.8738722 21.8385109,10.6612751 20.5674425,9.62543767 C20.8838775,8.99402618 21.1755674,8.36245757 21.4169615,7.73088896 C21.7427539,7.73088896 22.0069955,7.60438146 22.1059497,7.37731738 L18.6570838,6.54332629 L24.4746374,6.54332629 L24.8490621,2.95610143 L15.6712258,2.95610143 L15.8953347,0.808642454 Z" id="Fill-1" fill="#010000"></path>
                        <g id="Group-5" transform="translate(65.000000, 0.000000)">
                            <mask id="mask-8" fill="white">
                                <use xlink:href="#path-7"></use>
                            </mask>
                            <g id="Clip-4"></g>
                            <path d="M58.4651577,6.42848469 C59.4342782,4.91810033 60.3303133,3.38228274 61.1249298,1.84667362 C61.5242674,1.89701889 61.816216,1.77131205 61.9693521,1.51953355 L57.8729858,0.0592078176 C56.0598096,4.06178762 53.2149282,8.24122736 50.6480906,10.5066606 C51.1088346,11.4129016 51.8623389,13.3764717 52.1437868,14.308172 C52.9572049,13.5522632 53.7811235,12.6967062 54.5627255,11.7652664 L53.278089,23.9236508 L56.9968521,23.9236508 L58.7571063,7.25894723 C59.2456599,7.1833772 59.4946633,6.98275179 59.5722526,6.73060847 L58.4651577,6.42848469 Z M25.2312837,2.80323388 C25.5345447,2.80323388 25.8381198,2.80323388 26.0337822,2.62666059 L22.9181106,0.0339830619 C21.4512714,0.990829967 19.115683,2.02296026 16.8606953,2.77811336 L15.1905998,2.30006775 L14.2786959,10.9345954 C13.9251315,14.2827127 13.2279797,18.4870645 10.1514563,21.5075726 C10.9412807,21.9355075 12.1236343,23.1940091 12.4941411,24.0000026 C16.0603965,20.6514684 17.2652964,14.9905173 17.7320893,11.2899049 L19.553488,11.2899049 L18.2192027,23.9236508 L21.7861651,23.9236508 L23.1207646,11.2899049 L25.3211805,11.2899049 L25.6779658,7.91643257 L18.0884033,7.91643257 L18.357439,5.37105147 C20.8351654,4.66632182 23.4154365,3.7094228 25.2312837,2.80323388 Z M68.7992828,1.0412013 C69.3887052,0.965422801 69.6603857,0.789396743 69.72009,0.462439088 L64.9659556,0.210295765 C64.7108771,2.62666059 64.5204258,5.14454984 64.439825,7.58637394 L59.4586051,8.03948143 L59.4410342,11.5638072 L64.4218876,11.1107518 C64.5117582,18.1593511 65.8031245,23.8993121 69.4937113,23.9236508 L69.5952348,23.9236508 C72.0743752,23.9236508 73.3214871,22.8918332 74.4079473,18.1092664 C73.439272,17.7064261 72.3002825,16.7497355 71.6099128,15.8685889 C71.1746741,18.7887192 70.7301392,20.1232599 70.2490487,20.1232599 C69.0887961,20.0976704 68.337727,15.9440026 68.2560789,10.7329537 L75.1022711,10.1039244 L75.115207,6.62952704 L68.2966935,7.23369642 C68.3633632,5.169957 68.5356414,3.05516873 68.7992828,1.0412013 Z M8.90722489,16.045084 L8.93110659,15.8182958 L12.8266519,15.8182958 L13.1484787,12.772172 L9.25261922,12.772172 L9.37255145,11.6390906 C9.75732964,11.5892664 9.97278866,11.463299 10.0900499,11.3119765 L13.70763,11.3119765 L14.0214177,8.34176156 L11.6180074,8.34176156 C12.0719954,7.63653681 12.5311682,6.88140977 12.8505598,6.25243257 C13.2580937,6.22765081 13.4963084,6.1258658 13.5934849,5.92503192 L11.7215733,5.44680391 L13.7958247,5.44680391 L14.1068367,2.50131857 L10.3375869,2.50131857 L10.521256,0.763989577 C11.0348173,0.689123127 11.2560635,0.512549837 11.3106091,0.23554658 L7.03405638,0.00888859935 L6.77109581,2.50131857 L2.82440912,2.50131857 L2.51326617,5.44680391 L5.06845102,5.44680391 L3.42422736,5.92503192 C3.65057979,6.65467362 3.83568916,7.53634137 3.90256839,8.34176156 L1.70162877,8.34176156 L1.38781485,11.3119765 L5.84031177,11.3119765 L5.6860496,12.772172 L1.51191066,12.772172 L1.19000524,15.8182958 L4.80769008,15.8182958 C3.52187523,17.4546476 1.70744208,19.0655922 0.0100868762,20.0473772 C0.704960567,20.6514684 1.64247443,21.8347909 2.11707086,22.6154814 C3.04866667,21.9355075 4.00149938,21.0544391 4.91788108,20.0473772 L4.50806901,23.9236508 L8.07503142,23.9236508 L8.55101571,19.4186606 C9.02629298,19.9467648 9.50172736,20.4754163 9.81347258,20.8784651 L12.1364655,18.285527 C11.6223543,17.8825824 9.64635305,16.4725498 8.90722489,16.045084 Z M8.48130838,8.34176156 L6.98896396,8.34176156 C6.95015619,7.51088208 6.73817991,6.40349446 6.40915188,5.44680391 L9.69762539,5.44680391 C9.37187061,6.37821759 8.90059982,7.48563127 8.48130838,8.34176156 Z M47.4104704,1.29305798 C47.9518413,1.19228925 48.1708617,1.0412013 48.2278164,0.738947231 L43.7742197,0.512549837 L43.1997234,5.95007427 L40.5947064,5.95007427 L41.1101007,1.06616547 C41.6519168,0.965422801 41.8701778,0.81477785 41.9272896,0.512549837 L37.4741904,0.286100326 L36.8757338,5.95007427 L34.1439239,5.95007427 L34.6037776,1.59531205 C35.1426084,1.51953355 35.3637498,1.3429342 35.4182954,1.06616547 L30.8916657,0.81477785 L30.349195,5.95007427 L26.8078164,5.95007427 L26.4326223,9.49949446 L29.9740009,9.49949446 L28.4505998,23.9236508 L32.2453287,23.9236508 L32.3597095,22.838856 L47.9175114,22.838856 L48.292077,19.2893837 L32.734825,19.2893837 L33.7688346,9.49949446 L36.5010373,9.49949446 L35.6664347,17.4014619 L39.3848835,17.4014619 L39.4833694,16.4700221 L42.0891195,16.4700221 L41.9879889,17.4262436 L45.7063592,17.4262436 L46.5437899,9.49949446 L50.2370216,9.49949446 L50.6119276,5.95007427 L46.9188792,5.95007427 L47.4104704,1.29305798 Z M42.4478426,13.0717681 L39.8420139,13.0717681 L40.2196433,9.49949446 L42.825341,9.49949446 L42.4478426,13.0717681 Z M69.6782708,1.82150098 C70.7993229,3.18084951 72.0639532,5.09415244 72.491179,6.32755961 L75.6979781,4.46486254 C75.1756183,3.18084951 73.7959787,1.39385277 72.6640333,0.134960261 L69.6782708,1.82150098 Z M84.8156029,2.23231531 C84.5633001,1.50804169 83.9794815,0.953383713 83.250723,0.706113355 C82.9388207,0.600054723 82.6128303,0.549943974 82.2924436,0.5456443 C81.5215256,0.537461889 80.7858278,0.787963518 80.2021925,1.2321329 C79.6189763,1.67776156 79.2068598,2.30673876 79.0137113,3.02655635 C78.915723,3.39234137 78.8770986,3.77305798 78.8805551,4.15919479 C78.8833832,4.62431531 78.9712899,5.09847818 79.0310727,5.56432834 C79.1516858,6.50340326 79.2718799,7.44203518 79.3917073,8.38155309 C79.6329596,10.2579309 79.8729812,12.1351687 80.1138145,14.0115987 C80.1735188,14.4805498 80.2345323,14.9497616 80.2943413,15.4185564 C80.3532338,15.8815661 80.4233601,16.3453837 80.468662,16.8089407 C80.4716473,16.8323414 80.4883802,17.0316899 80.5262714,16.9552078 C80.5681168,16.8724456 80.5894322,16.7751427 80.6198081,16.6867779 C80.6931553,16.4709342 80.7651408,16.2550384 80.8383571,16.0386736 C80.9832184,15.6112078 81.1286559,15.1836638 81.2734387,14.755755 C81.8574667,13.0313511 82.4415471,11.3057746 83.0247372,9.58157915 C83.3176547,8.71854332 83.6101269,7.85600261 83.9022064,6.99317524 C84.1886035,6.14788534 84.4849775,5.30598306 84.7677348,4.45925993 C85.0005028,3.76206124 85.0773065,2.97902541 84.8156029,2.23231531 Z" id="Fill-3" fill="#010000" mask="url(#mask-8)"></path>
                        </g>
                        <path d="M146.627138,18.2923008 C146.22672,18.09512 145.787058,18.00494 145.35724,18.0002179 C143.803209,17.9827078 142.50203,19.0222656 142.117716,20.4534028 C141.924309,21.174638 141.947963,22.0297264 142.349258,22.7383523 C142.538155,23.071607 142.813192,23.3616735 143.138139,23.5714892 C143.467878,23.7845721 143.845493,23.9053055 144.221561,23.9622518 C144.991916,24.0777015 145.780797,23.9248066 146.413092,23.5519115 C146.998002,23.2079617 147.453329,22.677858 147.718059,22.0541539 C147.981397,21.4315219 148.077714,20.6881565 147.932002,19.9888218 C147.780699,19.2648044 147.318285,18.6315029 146.627138,18.2923008" id="Fill-6" fill="#FEFEFE"></path>
                        <path d="M144.36209,19.8967488 L145.262959,18.2319336 C145.328258,18.1275364 145.384831,18.0536161 145.438773,18.0014176 C145.423614,18.0009836 145.408559,18.0005242 145.393478,18.0002179 C144.026299,17.9849795 142.853062,18.7704594 142.315619,19.9176793 C142.359012,19.9179346 142.403213,19.9176793 142.447727,19.9174751 C142.911745,19.9152034 143.598642,19.9085159 144.36209,19.8967488 Z M148,20.0084716 C147.998776,20.0018352 147.997656,19.995556 147.996145,19.9888174 C147.860104,19.344465 147.474434,18.7721441 146.898495,18.4147945 C146.340371,18.9019131 146.125384,19.2281732 146.125384,19.2281732 L145.696503,19.8716833 C146.15914,19.8615499 146.619876,19.8492979 147.051075,19.8352337 C147.446382,19.8223691 147.758679,19.8911589 148,20.0084716 Z M142.997646,23.4652676 C143.027313,23.4876019 143.05724,23.5093237 143.088105,23.5303307 L143.927218,22.1013152 L142.997646,23.4652676 Z M142.737598,23.2394737 C142.76789,23.2694911 142.798755,23.2989469 142.830454,23.3273562 L143.607993,21.9142682 L142.737598,23.2394737 Z M142.948444,20.8775714 C142.615232,20.8884961 142.336482,20.9055723 142.026712,20.9203002 C141.950135,21.5255228 142.032025,22.1777369 142.352839,22.7383419 C142.429025,22.8714546 142.519381,22.9972417 142.620832,23.1141971 L143.847438,20.8477072 C143.414858,20.8620012 143.072503,20.8733343 142.948444,20.8775714 Z M145.323439,23.6071354 C145.054223,23.5399026 144.380974,23.2895792 144.171977,22.8435814 C144.171977,22.8435814 144.585569,23.3120157 145.284968,23.3745263 C145.578147,23.4008426 146.021901,23.2548397 146.249469,23.0029082 C146.281715,22.9673775 146.2546,22.9272012 146.2546,22.9272012 C146.2546,22.9272012 145.809857,23.3192903 145.271893,23.2163991 C144.922323,23.1494471 144.575827,22.9451452 144.304866,22.6066841 C144.304866,22.6066841 144.867834,23.0033166 145.29359,23.0073496 C145.706739,23.0115867 146.048104,22.772188 146.095144,22.655641 C146.114626,22.6066841 146.072848,22.6238369 146.072848,22.6238369 C146.072848,22.6238369 145.649958,22.8792398 145.274367,22.8388592 C145.044976,22.8142787 144.711686,22.6788687 144.488598,22.40422 C144.488598,22.40422 144.891667,22.6571725 145.313776,22.6409897 C145.755915,22.6246282 146.699604,21.8633203 147.046204,21.4968073 C147.392544,21.1305239 147.112102,20.7395834 146.822439,20.7494361 C146.822439,20.7494361 145.978482,20.7772072 145.073419,20.8070204 L143.208049,23.6071354 C143.527197,23.7981898 143.887028,23.9085598 144.245454,23.9622388 C145.024191,24.0777138 145.82163,23.9248192 146.460784,23.5518993 C146.889144,23.3028777 147.248273,22.9555594 147.515744,22.5463175 C147.290651,22.7479648 147.052638,22.9424906 146.817985,23.1048805 C146.131609,23.5805639 145.739245,23.7114304 145.323439,23.6071354 Z" id="Fill-8" fill="#010000"></path>
                    </g>
                </g>
            </g>
        </g>
    </g>
</svg>